<?xml version="1.0" encoding="utf-8"?>
<!-- Generator: Adobe Illustrator 23.0.2, SVG Export Plug-In . SVG Version: 6.00 Build 0)  -->
<svg version="1.1" id="Layer_1" xmlns="http://www.w3.org/2000/svg" xmlns:xlink="http://www.w3.org/1999/xlink" x="0px" y="0px"
	 viewBox="0 0 517.3 95.3" style="enable-background:new 0 0 517.3 95.3;" xml:space="preserve">
<style type="text/css">
	.st0{fill:#383838;}
	.st1{fill:#31FF01;}
	.st2{fill:#FFFFFF;}
</style>
<title>rfst_logo_left</title>
<g>
	<g id="Layer_1-2">
		<circle class="st0" cx="37.3" cy="60.5" r="31.9"/>
		<path class="st1" d="M11.8,86c-0.1-0.5-0.5-0.7-0.8-1c-2.2-2.1-4.1-4.5-5.7-7.1c-0.9-1.5-1.7-3-2.4-4.7c-0.4-0.9-0.7-1.9-1-2.8
			S1.5,68.8,1.2,68c-0.2-0.5-0.3-1-0.4-1.6c0-0.1,0-0.2,0-0.3c-0.5-0.8-0.2-1.8-0.5-2.6c0-0.1,0-0.1,0-0.2c-0.2-2-0.3-3.9-0.2-5.9
			c0.1-0.9,0.1-1.8,0.2-2.7s0.2-1.7,0.4-2.6c0.3-1.1,0.4-2.2,0.8-3.3C1.7,48,2,47,2.4,46.1C2.7,45.1,3.2,44,3.7,43
			c0.5-0.9,0.9-1.8,1.5-2.7c0.7-1.2,1.5-2.3,2.3-3.4c1.4-1.8,2.9-3.4,4.6-4.9c1.4-1.3,2.9-2.4,4.5-3.4c2-1.3,4.1-2.4,6.2-3.3
			c1.3-0.5,2.6-1,4-1.4c1.1-0.3,2.2-0.5,3.3-0.7c1.1-0.1,2.2-0.3,3.3-0.5c0.1,0,0.3,0,0.4,0c1.3,0,2.7,0,4,0
			c1.5,0.1,3.1,0.2,4.6,0.5c0.7,0.1,1.3,0.2,2,0.3c1.2,0.3,2.5,0.7,3.7,1.1c1.8,0.6,3.5,1.3,5.1,2.2c1.2,0.6,2.3,1.3,3.4,2.1
			c1.2,0.8,2.3,1.7,3.4,2.6c0.8,0.7,1.6,1.5,2.4,2.3c1.2,1.2,2.3,2.5,3.3,3.9c1.6,2.3,3,4.8,4.1,7.4c0.3,0.7,0.5,1.4,0.8,2.1
			c0.4,1.1,0.7,2.2,1,3.4c0.2,0.7,0.2,1.3,0.4,2c0.3,1.1,0.2,2.3,0.5,3.5c0,0.1,0,0.3,0,0.5c0,1.5,0.1,3,0,4.5
			c0,1.4-0.2,2.9-0.4,4.3c-0.2,1.1-0.4,2.2-0.7,3.3c-0.2,0.7-0.4,1.3-0.6,1.9c-0.4,1.2-0.8,2.4-1.4,3.5c-0.6,1.2-1.2,2.4-1.9,3.6
			c-0.8,1.3-1.6,2.5-2.5,3.7c-1.2,1.6-2.6,3.1-4.1,4.5c-1.4,1.3-2.8,2.5-4.4,3.5c-1.6,1.1-3.3,2-5.1,2.8c-1,0.4-2,0.9-3,1.3
			s-2.3,0.7-3.5,1c-0.7,0.2-1.4,0.3-2.1,0.4c-0.9,0.2-1.9,0.4-2.8,0.4c-1.1,0-2.3,0.1-3.4,0.2c-1.4,0-2.9-0.1-4.3-0.2
			c-0.9,0-1.8-0.2-2.7-0.5c-0.5-0.2-1.2-0.2-1.7-0.4c-0.8-0.2-1.6-0.4-2.3-0.6c-1.2-0.4-2.4-0.8-3.5-1.3c-2.7-1.2-5.2-2.7-7.6-4.4
			c-0.7-0.5-1.3-1.1-2-1.6C12.2,86.1,12,86,11.8,86L11.8,86z M36.3,73h18c0.4,0,0.6-0.2,0.5-0.6s0-0.6,0-0.9c0-1.2,0-1.2-1.2-1.2
			H18.8c-0.1,0-0.2,0-0.4,0c-0.5,0-0.7,0.2-0.7,0.6s0,1,0,1.4c0,0.7,0,0.7,0.7,0.7L36.3,73z M36.3,79.2h18c0.3,0,0.4-0.1,0.4-0.4
			c0-0.6,0-1.1,0-1.7c0-0.4-0.1-0.5-0.5-0.5s-0.8,0-1.2,0H18.3c-0.3,0-0.5,0.2-0.5,0.5s0,0.9,0,1.4c0,0.7,0,0.7,0.7,0.7L36.3,79.2z
			 M27.1,67.3c0.4,0,0.8,0,1.2,0c0.2,0,0.4-0.1,0.5-0.2c0.1-0.2,0-0.3-0.1-0.4c-0.4-0.5-0.7-1.1-1-1.7c-0.4-0.8-0.9-1.6-1.3-2.4
			c-1.1-2-2.3-4-3.2-6.1c-0.7-1.1-1.1-2.4-1.1-3.7c0.1-1.1,0.9-1.9,2-2c0.8,0,1.7,0.1,2.4,0.4c0.3,0.1,0.6,0.2,0.8-0.3
			s0.5-1.1,0.8-1.6s0.1-0.6-0.3-0.7c-0.7-0.3-1.5-0.5-2.2-0.7c-0.9-0.2-1.9-0.2-2.8,0.1c-1.1,0.3-2.1,1-2.7,1.9
			c-0.9,1.3-1.2,3-0.8,4.6c0.4,1.6,1,3.1,1.8,4.5c0.8,1.5,1.6,3,2.5,4.5c0.4,0.8,0.9,1.4,1.3,2.2C25.6,67.5,25.1,67.3,27.1,67.3z
			 M45.3,67.3h1c0.3,0,0.7-0.2,0.8-0.5c0.2-0.4,0.5-0.8,0.7-1.2c0.9-1.6,1.8-3.3,2.7-4.9c0.6-1.1,1.2-2.3,1.7-3.5
			c0.7-1.4,1.1-2.9,1.1-4.4c0-1.1-0.4-2.2-1.2-3.1c-1-1.2-2.5-1.9-4.1-1.9c-1.2,0-2.4,0.3-3.5,0.8c-0.2,0.1-0.4,0.3-0.3,0.5
			c0.3,0.7,0.6,1.4,1,2c0.1,0.2,0.3,0.3,0.5,0.2c0,0,0,0,0,0c0.7-0.3,1.5-0.5,2.3-0.5c1.2,0.1,2.1,1,2.2,2.2c0,0.8-0.2,1.6-0.5,2.3
			c-1,2.2-2.1,4.3-3.3,6.4c-1,1.7-1.9,3.4-2.9,5.1c-0.2,0.4-0.1,0.6,0.4,0.6S45,67.3,45.3,67.3z M18.3,67.3h1.1c0.2,0,0.5,0,0.6-0.2
			s0-0.4-0.2-0.6c-0.5-0.7-1-1.5-1.6-2.2s-1.2-1.8-1.9-2.6s-1.4-2-2-3.1c-1-1.2-1.5-2.7-1.4-4.3c0.1-1,0.7-1.8,1.6-2.2
			c0.9-0.3,1.8-0.3,2.7,0c0.6,0.2,0.8,0,1-0.6c0.1-0.5,0.2-1,0.4-1.5c0.2-0.4,0-0.5-0.3-0.7c-0.8-0.2-1.6-0.3-2.5-0.4
			c-0.4-0.1-0.9,0.2-1.3,0.2c-0.5,0-1.1,0.1-1.5,0.4c-1.6,0.8-2.8,2.2-3.1,4c-0.3,1.1-0.2,2.3,0.2,3.4c0.7,1.9,1.7,3.7,2.9,5.3
			c0.9,1.4,1.9,2.7,2.9,4.1c0.4,0.6,0.9,1.1,1.7,1C18,67.3,18.2,67.3,18.3,67.3L18.3,67.3z M44.5,52.4c0.1-0.9,0-1.7-0.5-2.5
			c-0.7-1.1-1.7-1.9-3-2.3c-1.5-0.5-3.1-0.3-4.5,0.5c-0.1,0.1-0.3,0.1-0.5,0c-0.6-0.4-1.4-0.7-2.1-0.8c-0.9-0.1-1.8,0-2.6,0.2
			c-1.5,0.5-2.6,1.7-3,3.2c-0.4,1.5-0.2,3.1,0.4,4.5c0.5,1.5,1.2,2.9,2,4.2c0.6,1,1,2,1.6,3c0.8,1.4,1.6,2.8,2.4,4.2
			c0.1,0.3,0.4,0.5,0.8,0.5c0.6,0,1.2,0,1.8,0c0.3,0,0.6-0.2,0.7-0.4c0.7-1.2,1.3-2.4,2-3.7c1.4-2.4,2.7-4.9,3.8-7.4
			C44.2,54.7,44.5,53.6,44.5,52.4z M54.1,67.3c0.4,0,0.8,0,1.2,0c0.3,0,0.6-0.1,0.8-0.4c0.8-1.1,1.6-2.2,2.4-3.4s1.7-2.5,2.5-3.8
			c0.7-1,1.2-2.2,1.5-3.3c0.2-1.1,0.2-2.3-0.1-3.4c-0.3-1.3-1.2-2.4-2.3-3.1c-1.7-1.1-3.6-1-5.5-0.7c-0.2,0-0.4,0.1-0.6,0.2
			c-0.1,0-0.2,0.2-0.2,0.3c0,0,0,0.1,0,0.1c0.2,0.5,0.3,1,0.4,1.5c0.1,0.8,0.5,1,1.3,0.7c0.7-0.2,1.4-0.2,2.1,0
			c0.6,0.1,1.1,0.4,1.4,0.9c0.6,0.8,0.8,1.8,0.6,2.8c-0.2,0.9-0.6,1.7-1.1,2.5c-0.6,1-1.2,1.9-1.9,2.9s-1.3,1.8-1.9,2.8
			s-1.4,1.9-2,2.9c-0.2,0.4-0.1,0.6,0.3,0.7L54.1,67.3z M40.4,42.1c0.1-0.4,0.1-0.7,0-1.1c-0.4-1.2-1.3-2.2-2.4-2.7
			c-0.2-0.1-0.3-0.2-0.2-0.4c0-0.6,0-1.2,0-1.8c0-0.3,0.2-0.5,0.5-0.5s1,0,1.5,0c0.2,0,0.4-0.1,0.4-0.3c0,0,0-0.1,0-0.1
			c0-0.6,0-1.2,0-1.8c0-0.2-0.1-0.4-0.3-0.4c0,0-0.1,0-0.1,0c-0.5,0-0.9,0-1.4,0s-0.6-0.2-0.6-0.6s0-1,0-1.5c0-0.2,0-0.5-0.3-0.5
			c-0.7,0-1.4,0-2.2,0c-0.3,0-0.4,0.2-0.4,0.4c0,0.5,0,1.1,0,1.6s-0.1,0.6-0.6,0.6s-1,0-1.5,0c-0.3,0-0.5,0.2-0.5,0.5s0,1,0,1.5
			s0.2,0.7,0.7,0.7s1,0,1.5,0c0.3,0,0.4,0.1,0.4,0.4c0,0.6,0,1.2,0,1.8c0,0.2-0.1,0.4-0.3,0.5c-2,0.8-3,3.1-2.3,5.2
			c0.7,2.1,3,3.3,5.2,2.6C39.3,45.6,40.5,44,40.4,42.1z"/>
		<path class="st1" d="M36.3,40.4c0.9,0,1.7,0.8,1.7,1.8c-0.1,0.9-0.9,1.6-1.8,1.7c-1-0.1-1.7-0.9-1.7-1.8
			C34.6,41.1,35.4,40.4,36.3,40.4z"/>
		<path class="st1" d="M33.1,50.3c0.9,0,1.7,0.5,2.1,1.3c0.3,0.4,0.5,0.8,0.6,1.2c0,0.1,0.1,0.3,0.2,0.4c0.1,0.1,0.3,0.2,0.5,0.1
			c0.1-0.1,0.1-0.1,0.1-0.2c0.3-0.8,0.7-1.6,1.3-2.2c0.5-0.4,1.1-0.6,1.7-0.6c1.1,0.1,2,1,1.9,2.2c0,0.2-0.1,0.5-0.2,0.7
			c-0.3,0.8-0.5,1.6-0.8,2.4c-0.5,1.3-1.2,2.5-1.9,3.7c-0.7,1.2-1.5,2.6-2.2,3.9c-0.2,0.3-0.2,0.3-0.5,0c-0.9-1.4-1.6-3-2.4-4.4
			c-0.7-1.2-1.3-2.4-1.8-3.7c-0.4-0.9-0.7-1.9-0.8-2.9C31,51.2,31.9,50.3,33.1,50.3C33,50.3,33.1,50.3,33.1,50.3z"/>
		<path class="st2" d="M113.2,17.6l7.5,10.9c0,0.1,0.1,0.2,0.1,0.3c0,0.1,0.1,0.2,0.1,0.3c0,0.1,0,0.3-0.1,0.4
			c-0.1,0.1-0.3,0.1-0.4,0.1h-4c-0.2,0-0.4,0-0.6-0.1c-0.2-0.1-0.4-0.3-0.5-0.5l-6.6-9.8c-0.2-0.2-0.3-0.5-0.4-0.8
			c-0.1-0.3-0.2-0.6-0.2-0.9v-2.8c0-0.2,0.1-0.3,0.2-0.5c0.1-0.1,0.3-0.2,0.5-0.2h3.9c0.6,0,1.1-0.2,1.5-0.7c0.4-0.4,0.6-1,0.6-1.5
			V8.2c0-0.6-0.2-1.1-0.6-1.6c-0.4-0.4-1-0.7-1.5-0.6h-6.3c-0.2,0-0.3,0.1-0.4,0.2c-0.1,0.1-0.2,0.3-0.2,0.5V29
			c0,0.4-0.3,0.7-0.6,0.7c0,0,0,0,0,0h-3.7c-0.2,0-0.3-0.1-0.4-0.2c-0.1-0.1-0.2-0.3-0.2-0.5V6.6c0-0.2,0-0.3-0.2-0.5
			c-0.1-0.1-0.3-0.2-0.4-0.2h-1.3c-0.2,0-0.3-0.1-0.5-0.2c-0.1-0.1-0.2-0.3-0.2-0.5V2.8c0-0.3,0.2-0.6,0.6-0.7c0,0,0,0,0.1,0h15.8
			c1.4,0,2.7,0.5,3.7,1.5c1,1,1.6,2.3,1.5,3.8v5c0,1.4-0.5,2.7-1.5,3.7c-1,1-2.3,1.6-3.7,1.5L113.2,17.6z"/>
		<path class="st2" d="M134.1,17v-1.4c0-0.8-0.4-1.5-1.1-1.8c-0.8-0.5-1.7-0.7-2.6-0.6c-0.5,0-1.1,0-1.8,0.1s-1.3,0.1-1.9,0.2
			l-1.5,0.2l-0.8,0.1c-0.1,0-0.2,0-0.3-0.1c-0.1-0.1-0.1-0.2-0.1-0.4v-2.8c0-0.1,0-0.3,0.1-0.4c0-0.1,0.2-0.2,0.4-0.3
			s0.8-0.1,1.3-0.2s1.1-0.1,1.7-0.2l1.6-0.1c0.5,0,0.9,0,1.2,0c1.1,0,2.3,0.1,3.4,0.3c1,0.2,1.9,0.5,2.8,1c0.8,0.5,1.4,1.1,1.8,1.9
			c0.5,0.9,0.7,2,0.7,3v9.2c0,0.3,0.1,0.6,0.3,0.8c0.2,0.2,0.4,0.3,0.7,0.3h0.2c0.2,0,0.4,0.1,0.5,0.2c0.1,0.1,0.2,0.3,0.2,0.5v2.5
			c0,0.2-0.1,0.3-0.2,0.5c-0.1,0.1-0.3,0.2-0.5,0.2h-1.5c-0.9,0.1-1.7-0.1-2.5-0.5c-0.6-0.4-1-1-1.2-1.6c0-0.1-0.1-0.2-0.1-0.2
			c0,0-0.1-0.1-0.2-0.1c-0.1,0-0.2,0-0.2,0.1c-0.1,0-0.1,0.1-0.1,0.2c-0.2,0.7-0.7,1.3-1.4,1.7c-0.9,0.4-1.9,0.6-2.8,0.6h-1.7
			c-1.4,0-2.8-0.5-3.9-1.5c-1-1-1.6-2.3-1.5-3.7v-0.9c-0.1-1.4,0.5-2.7,1.5-3.6c1.1-0.9,2.3-1.5,3.7-1.8L134.1,17z M127.6,4.1
			c0-1.1,0.4-2.2,1.2-2.9c1.6-1.6,4.2-1.6,5.9,0c0.8,0.8,1.2,1.8,1.2,2.9c0,1.1-0.4,2.2-1.2,2.9c-1.6,1.6-4.2,1.6-5.9,0
			C128,6.3,127.6,5.2,127.6,4.1z M129.9,25.9h1.1c1.4,0,2.3-0.4,2.6-1.1c0.4-1,0.5-2,0.5-3v-1.3l-4.6,1.1c-0.5,0.1-1,0.4-1.3,0.8
			c-0.3,0.4-0.5,0.9-0.5,1.4v0.4c0,0.5,0.2,1,0.6,1.3C128.9,25.7,129.4,25.9,129.9,25.9z M129.9,4.1c0,1,0.8,1.8,1.8,1.8
			c1,0,1.8-0.8,1.8-1.8c0-0.5-0.2-0.9-0.5-1.2c-0.7-0.7-1.8-0.7-2.5,0C130.1,3.2,129.9,3.7,129.9,4.1z"/>
		<path class="st2" d="M150.8,9.3c0.7,0,1.5,0,2.2,0.1c0.6,0.1,1.3,0.1,1.9,0.1c0.2,0,0.3-0.1,0.4-0.2c0.1-0.1,0.2-0.3,0.2-0.5V2.8
			c0-0.2,0.1-0.3,0.2-0.5c0.1-0.1,0.3-0.2,0.4-0.2h3.6c0.2,0,0.3,0.1,0.5,0.2c0.1,0.1,0.2,0.3,0.2,0.5V24c0,2.2-0.8,3.8-2.2,4.7
			c-1.5,0.9-3.8,1.4-6.9,1.4c-2.8,0-4.8-0.5-6.1-1.5c-1.4-1.1-2.1-2.8-2-4.5v-8.6c-0.1-1.7,0.7-3.4,2-4.4
			C146.8,9.8,148.8,9.2,150.8,9.3z M151.6,13.3c-1.6,0-2.6,0.3-3,0.8c-0.5,0.8-0.7,1.7-0.6,2.6v6.7c-0.1,0.7,0.2,1.4,0.7,2
			c0.8,0.5,1.7,0.8,2.7,0.7h0.7c1,0.1,2-0.1,2.8-0.7c0.5-0.5,0.8-1.2,0.7-2v-9.2c0-0.2-0.4-0.5-1.1-0.6
			C153.5,13.4,152.6,13.3,151.6,13.3L151.6,13.3z"/>
		<path class="st2" d="M180.8,15.6v5c0,0.2-0.1,0.3-0.2,0.5c-0.1,0.1-0.3,0.2-0.4,0.2h-10.9v0.6c0,1.1,0.5,2.2,1.4,2.9
			c1.1,0.7,2.3,1.1,3.6,1.1h5.1c0.2,0,0.3,0.1,0.5,0.2c0.1,0.1,0.2,0.3,0.2,0.5V29c0,0.4-0.3,0.7-0.6,0.7c0,0,0,0,0,0h-5.9
			c-1.2,0-2.4-0.2-3.6-0.5c-1.1-0.3-2-0.8-2.9-1.5c-0.8-0.7-1.5-1.5-1.9-2.5c-0.5-1.1-0.7-2.3-0.7-3.5v-5.1c0-1.9,0.6-3.7,1.8-5.1
			c1.2-1.4,3.4-2.1,6.7-2.1c2.8,0,4.8,0.6,6,1.8C180.1,12.3,180.8,13.9,180.8,15.6z M169.3,16.3v0.9c0,0.2,0,0.3,0.1,0.4
			c0.1,0.1,0.3,0.2,0.4,0.1h5.6c0.2,0,0.3-0.1,0.4-0.2c0.1-0.1,0.2-0.3,0.2-0.5v-0.9c0-0.8-0.2-1.6-0.7-2.3c-0.7-0.7-1.7-1-2.6-0.9
			c-1.4,0-2.3,0.3-2.8,0.9C169.5,14.7,169.3,15.5,169.3,16.3z"/>
		<path class="st2" d="M186.3,25V14.2c0-0.2,0-0.3-0.2-0.5c-0.1-0.1-0.3-0.2-0.4-0.2h-2.1c-0.2,0-0.3-0.1-0.5-0.2
			c-0.1-0.1-0.2-0.3-0.2-0.5v-2.5c0-0.3,0.2-0.6,0.6-0.6c0,0,0,0,0.1,0h2.1c0.2,0,0.3-0.1,0.4-0.2c0.1-0.1,0.2-0.3,0.2-0.5V5.2
			c0-0.2,0.1-0.3,0.2-0.5c0.1-0.1,0.3-0.2,0.4-0.2h3.6c0.2,0,0.3,0.1,0.5,0.2c0.1,0.1,0.2,0.3,0.2,0.5v3.8c0,0.2,0,0.3,0.2,0.5
			c0.1,0.1,0.3,0.2,0.4,0.2h3.5c0.2,0,0.4,0.1,0.5,0.2c0.1,0.1,0.2,0.3,0.2,0.5v2.5c0,0.2-0.1,0.3-0.2,0.5c-0.1,0.1-0.3,0.2-0.5,0.2
			h-3.5c-0.2,0-0.3,0.1-0.4,0.2c-0.1,0.1-0.2,0.3-0.2,0.5v8.9c-0.1,0.8,0.1,1.6,0.5,2.2c0.5,0.4,1.1,0.6,1.7,0.5h1.9
			c0.2,0,0.3,0.1,0.4,0.2c0.1,0.1,0.2,0.3,0.2,0.5V29c0,0.3-0.2,0.6-0.5,0.6c0,0-0.1,0-0.1,0h-4.6c-1.2,0.1-2.5-0.3-3.4-1.1
			C186.5,27.5,186.2,26.2,186.3,25z"/>
		<path class="st2" d="M206.6,9.1V7.7c-0.2-1.6,0.5-3.2,1.8-4.2c1.4-0.9,3.1-1.4,4.8-1.3h2.4c0.3,0,0.6,0.2,0.6,0.5c0,0,0,0.1,0,0.1
			v2.5c0,0.2-0.1,0.3-0.2,0.5c-0.1,0.1-0.3,0.2-0.4,0.2h-1.4c-0.8-0.1-1.5,0.1-2.1,0.6c-0.5,0.6-0.7,1.4-0.6,2.1v0.4
			c0,0.2,0,0.3,0.2,0.5c0.1,0.1,0.3,0.2,0.4,0.2h3.3c0.3,0,0.6,0.2,0.7,0.5c0,0.1,0,0.1,0,0.2v2.5c0,0.2-0.1,0.3-0.2,0.5
			c-0.1,0.1-0.3,0.2-0.5,0.2H212c-0.2,0-0.3,0.1-0.4,0.2c-0.1,0.1-0.2,0.3-0.2,0.5V29c0,0.2-0.1,0.3-0.2,0.5
			c-0.1,0.1-0.3,0.2-0.5,0.2h-3.5c-0.2,0-0.3-0.1-0.4-0.2c-0.1-0.1-0.2-0.3-0.2-0.5V14.2c0-0.2,0-0.3-0.2-0.5
			c-0.1-0.1-0.3-0.2-0.4-0.2h-2.1c-0.2,0-0.3-0.1-0.5-0.2c-0.1-0.1-0.2-0.3-0.2-0.5v-2.5c0-0.2,0.1-0.3,0.2-0.5
			c0.1-0.1,0.3-0.2,0.5-0.2h2.1c0.2,0,0.3-0.1,0.4-0.2C206.6,9.4,206.6,9.2,206.6,9.1z"/>
		<path class="st2" d="M217.4,24v-8.6c0-1.6,0.7-3.2,1.9-4.3c1.3-1.2,3.5-1.7,6.6-1.7c3.2,0,5.4,0.6,6.6,1.7
			c1.2,1.1,1.9,2.7,1.9,4.3v8.6c0,1.6-0.7,3.2-1.9,4.3c-1.2,1.2-3.4,1.7-6.6,1.7s-5.4-0.6-6.6-1.7C218,27.3,217.4,25.7,217.4,24z
			 M222.2,16.1v7.1c0,0.8,0.3,1.6,0.8,2.2c0.5,0.5,1.5,0.8,3,0.8c1,0.1,2.1-0.2,2.9-0.8c0.5-0.6,0.7-1.4,0.7-2.2v-7.1
			c0-0.8-0.2-1.6-0.7-2.2c-0.5-0.5-1.5-0.8-2.9-0.8s-2.5,0.3-3,0.8C222.5,14.5,222.2,15.3,222.2,16.1z"/>
		<path class="st2" d="M239.9,25.2v-11c0-0.2-0.1-0.3-0.2-0.5c-0.1-0.1-0.3-0.2-0.4-0.2H238c-0.2,0-0.3-0.1-0.5-0.2
			c-0.1-0.1-0.2-0.3-0.2-0.5v-2.5c0-0.3,0.2-0.6,0.6-0.6c0,0,0,0,0.1,0h10c1.4,0,2.7,0.5,3.7,1.5c1,0.9,1.5,2.3,1.5,3.7v1.5
			c0,0.3-0.2,0.6-0.6,0.7c0,0-0.1,0-0.1,0h-3.1c-0.2,0-0.3-0.1-0.4-0.2c-0.1-0.1-0.2-0.3-0.2-0.5v-1c0-0.5-0.2-1.1-0.6-1.4
			c-0.4-0.3-1-0.5-1.5-0.5h-1.2c-0.2,0-0.3,0.1-0.4,0.2c-0.1,0.1-0.2,0.3-0.2,0.5v11c0,0.2,0.1,0.3,0.2,0.5c0.1,0.1,0.3,0.2,0.4,0.2
			h3.8c0.2,0,0.4,0.1,0.5,0.2c0.1,0.1,0.2,0.3,0.2,0.5V29c0,0.2-0.1,0.3-0.2,0.5c-0.1,0.1-0.3,0.2-0.5,0.2H238
			c-0.2,0-0.3-0.1-0.5-0.2c-0.1-0.1-0.2-0.3-0.2-0.5v-2.5c0-0.3,0.2-0.6,0.6-0.6c0,0,0,0,0.1,0h1.3c0.2,0,0.3-0.1,0.4-0.2
			C239.9,25.5,239.9,25.4,239.9,25.2z"/>
		<path class="st2" d="M100.5,87.3h19.9c1.1,0,2.2-0.4,3-1.1c0.8-0.7,1.3-1.7,1.2-2.8V79c0-1-0.3-2.1-1-2.8c-1-1-2.2-1.7-3.5-2.3
			l-9.9-4.9c-1.6-0.8-3-1.5-4.3-2.2c-1.2-0.6-2.2-1.4-3.2-2.2c-0.9-0.8-1.6-1.8-2-2.9c-0.5-1.3-0.7-2.7-0.7-4.1v-6.3
			c0-2.7,1.1-5.4,3-7.3c1.9-2,4.5-3,7.2-3h20.2c0.3,0,0.7,0.1,0.9,0.4c0.2,0.2,0.4,0.6,0.4,0.9v4.9c0,0.3-0.1,0.7-0.4,0.9
			c-0.2,0.2-0.6,0.4-0.9,0.4h-16.7c-1.1,0-2.2,0.4-3,1.1c-0.8,0.7-1.3,1.8-1.2,2.8V56c-0.1,1.1,0.4,2.3,1.2,3c1,0.8,2.1,1.5,3.3,2.1
			l9.9,4.8c1.6,0.7,3.2,1.6,4.7,2.5c1.2,0.7,2.2,1.5,3.2,2.4c0.8,0.8,1.4,1.9,1.8,3c0.4,1.4,0.6,2.8,0.6,4.2v6.6c0,2.7-1,5.3-3,7.2
			c-1.9,2-4.5,3.1-7.2,3h-23.5c-0.3,0-0.7-0.1-0.9-0.4c-0.2-0.2-0.4-0.6-0.4-0.9v-5c0-0.3,0.1-0.7,0.4-0.9
			C99.9,87.4,100.2,87.3,100.5,87.3z"/>
		<path class="st2" d="M153.1,57v29c0,0.3,0.1,0.7,0.3,0.9c0.2,0.2,0.5,0.4,0.9,0.4h4.8c0.7,0,1.3,0.5,1.3,1.2c0,0,0,0.1,0,0.1v4.9
			c0,0.7-0.5,1.3-1.2,1.3c0,0-0.1,0-0.1,0h-20.5c-0.3,0-0.7-0.1-0.9-0.4c-0.2-0.2-0.4-0.6-0.4-0.9v-4.9c0-0.3,0.1-0.7,0.4-0.9
			c0.2-0.2,0.6-0.4,0.9-0.4h3.9c0.3,0,0.7-0.1,0.9-0.4c0.2-0.3,0.3-0.6,0.3-0.9V64.5c0-0.3-0.1-0.7-0.3-0.9
			c-0.2-0.2-0.5-0.4-0.9-0.4h-2.6c-0.7,0-1.3-0.5-1.3-1.2c0,0,0-0.1,0-0.1V57c0-0.7,0.5-1.3,1.2-1.3c0,0,0.1,0,0.1,0h11.9
			c0.7,0,1.3,0.5,1.3,1.2C153.1,57,153.1,57,153.1,57z M142.1,45.9c0-1.5,0.6-3,1.7-4c1-1.1,2.5-1.8,4-1.8c1.5,0,3,0.6,4,1.8
			c2.2,2.1,2.3,5.6,0.2,7.8c-0.1,0.1-0.1,0.1-0.2,0.2c-1,1.1-2.5,1.8-4,1.8c-1.5,0-3-0.6-4-1.8C142.7,48.8,142.1,47.4,142.1,45.9
			L142.1,45.9z"/>
		<path class="st2" d="M174.6,42.2v51.3c0,0.7-0.5,1.3-1.2,1.3c0,0-0.1,0-0.1,0h-7c-0.3,0-0.7-0.1-0.9-0.4c-0.2-0.3-0.3-0.6-0.3-0.9
			V42.2c0-0.3,0.1-0.7,0.3-0.9c0.2-0.2,0.5-0.4,0.9-0.4h7c0.7,0,1.3,0.5,1.3,1.2C174.6,42.1,174.6,42.2,174.6,42.2z M189.4,93.5
			l-10.2-13c-0.5-0.7-1-1.3-1.4-1.9c-0.4-0.6-0.7-1.3-0.6-2.1v-4.6c0-0.5,0.1-1,0.3-1.4c0.2-0.5,0.5-1,0.9-1.4l8.7-11.1
			c0.5-0.7,1.1-1.2,1.7-1.8c0.6-0.4,1.4-0.5,2.1-0.5h5.8c0.4,0,0.7,0.1,1,0.3c0.3,0.2,0.4,0.5,0.4,0.8c0,0.2,0,0.4-0.1,0.6
			c-0.1,0.3-0.2,0.5-0.4,0.7L186,72.7c-0.1,0.2-0.3,0.4-0.4,0.6c-0.1,0.2-0.2,0.4-0.2,0.6c0,0.2,0.1,0.4,0.2,0.6
			c0.1,0.2,0.3,0.4,0.4,0.6l13.8,17.4c0.2,0.2,0.3,0.5,0.4,0.7c0.1,0.2,0.1,0.4,0.1,0.6c0,0.3-0.2,0.6-0.4,0.8
			c-0.3,0.2-0.6,0.3-1,0.3h-6.7c-0.6,0-1.2-0.1-1.8-0.3C190.1,94.2,189.7,93.9,189.4,93.5z"/>
		<path class="st2" d="M213.1,42.2v51.3c0,0.7-0.5,1.3-1.2,1.3c0,0-0.1,0-0.1,0h-7c-0.3,0-0.7-0.1-0.9-0.4c-0.2-0.3-0.3-0.6-0.3-0.9
			V42.2c0-0.3,0.1-0.7,0.3-0.9c0.2-0.2,0.5-0.4,0.9-0.4h7c0.7,0,1.3,0.5,1.3,1.2C213.1,42.1,213.1,42.2,213.1,42.2z M227.9,93.5
			l-10.2-13c-0.5-0.7-1-1.3-1.4-1.9c-0.4-0.6-0.7-1.3-0.6-2.1v-4.6c0-0.5,0.1-1,0.3-1.4c0.2-0.5,0.5-1,0.9-1.4l8.7-11.1
			c0.5-0.7,1.1-1.2,1.7-1.8c0.6-0.4,1.4-0.5,2.1-0.5h5.8c0.4,0,0.7,0.1,1,0.3c0.3,0.2,0.4,0.5,0.4,0.8c0,0.2-0.1,0.4-0.1,0.6
			c-0.1,0.3-0.2,0.5-0.4,0.7l-11.6,14.5c-0.1,0.2-0.3,0.4-0.4,0.6c-0.1,0.2-0.2,0.4-0.2,0.6c0,0.2,0.1,0.4,0.2,0.6
			c0.1,0.2,0.3,0.4,0.4,0.6l13.9,17.4c0.2,0.2,0.3,0.5,0.4,0.7c0.1,0.2,0.1,0.4,0.1,0.6c0,0.3-0.1,0.6-0.4,0.8
			c-0.3,0.2-0.6,0.3-1,0.3h-6.7c-0.6,0-1.2-0.1-1.8-0.3C228.6,94.2,228.2,93.9,227.9,93.5z"/>
		<path class="st2" d="M272,67.2V77c0,0.3-0.1,0.7-0.3,0.9c-0.2,0.2-0.5,0.4-0.9,0.4h-21.3v1.2c-0.1,2.2,1,4.4,2.8,5.7
			c2.1,1.5,4.6,2.2,7.1,2.1h9.9c0.7,0,1.3,0.5,1.3,1.2c0,0,0,0.1,0,0.1v5c0,0.7-0.5,1.3-1.2,1.3c0,0-0.1,0-0.1,0h-11.6
			c-2.4,0-4.7-0.3-7-1c-2.1-0.6-4-1.6-5.6-3c-1.6-1.3-2.9-3-3.7-4.9c-0.9-2.2-1.4-4.5-1.3-6.8v-10c-0.1-3.6,1.1-7.2,3.5-10
			c2.3-2.7,6.7-4.1,13-4.1c5.4,0,9.4,1.2,11.8,3.6C270.7,60.8,272,63.9,272,67.2z M249.5,68.7v1.8c0,0.3,0.1,0.6,0.2,0.8
			c0.2,0.2,0.5,0.3,0.8,0.3h11.1c0.3,0,0.7-0.1,0.9-0.4c0.2-0.3,0.3-0.6,0.3-0.9v-1.8c0.1-1.6-0.4-3.2-1.4-4.4
			c-1-1.1-2.7-1.7-5.2-1.7c-2.8,0-4.6,0.6-5.4,1.8C249.8,65.5,249.4,67.1,249.5,68.7L249.5,68.7z"/>
		<path class="st2" d="M282.6,86V64.5c0-0.3-0.1-0.7-0.3-0.9c-0.2-0.2-0.5-0.4-0.9-0.4h-2.6c-0.7,0-1.3-0.5-1.3-1.2c0,0,0-0.1,0-0.1
			V57c0-0.7,0.5-1.3,1.2-1.3c0,0,0.1,0,0.1,0h19.6c2.7-0.1,5.3,1,7.2,2.9c2,1.9,3.1,4.4,3,7.1v3c0,0.3-0.1,0.7-0.4,0.9
			c-0.2,0.2-0.6,0.4-0.9,0.4h-6.2c-0.3,0-0.7-0.1-0.9-0.4c-0.2-0.3-0.3-0.6-0.3-0.9v-1.9c0.1-1.1-0.4-2.1-1.2-2.7
			c-0.9-0.7-1.9-1-3-1h-2.4c-0.3,0-0.7,0.1-0.9,0.4c-0.2,0.3-0.3,0.6-0.3,0.9V86c0,0.3,0.1,0.7,0.3,0.9c0.2,0.2,0.5,0.4,0.9,0.4h7.4
			c0.7,0,1.3,0.5,1.3,1.2c0,0,0,0.1,0,0.1v4.9c0,0.7-0.5,1.3-1.2,1.3c0,0-0.1,0-0.1,0h-21.8c-0.7,0-1.3-0.5-1.3-1.2c0,0,0-0.1,0-0.1
			v-4.9c0-0.7,0.5-1.3,1.2-1.3c0,0,0.1,0,0.1,0h2.6c0.3,0,0.7-0.1,0.9-0.4C282.6,86.7,282.7,86.4,282.6,86z"/>
		<path class="st2" d="M338.6,93.5V49.7c0-0.3-0.1-0.7-0.3-0.9c-0.2-0.2-0.5-0.4-0.9-0.4h-12.2c-0.3,0-0.7-0.1-0.9-0.4
			c-0.2-0.2-0.4-0.6-0.4-0.9v-4.9c0-0.3,0.1-0.7,0.4-0.9c0.2-0.2,0.6-0.4,0.9-0.4h36.5c0.7,0,1.3,0.5,1.3,1.2c0,0,0,0.1,0,0.1v4.9
			c0.1,0.7-0.5,1.3-1.1,1.3c0,0-0.1,0-0.1,0h-12.2c-0.3,0-0.7,0.1-0.9,0.4c-0.2,0.3-0.3,0.6-0.3,0.9v43.8c0,0.7-0.5,1.3-1.2,1.3
			c0,0-0.1,0-0.1,0h-7.3c-0.3,0-0.6-0.1-0.9-0.4C338.8,94.2,338.7,93.8,338.6,93.5z"/>
		<path class="st2" d="M363.6,86V64.5c0-0.3-0.1-0.7-0.3-0.9c-0.2-0.2-0.5-0.4-0.9-0.4h-2.6c-0.7,0-1.3-0.5-1.3-1.2c0,0,0-0.1,0-0.1
			V57c0-0.7,0.5-1.3,1.2-1.3c0,0,0.1,0,0.1,0h19.6c2.7-0.1,5.3,1,7.2,2.9c2,1.9,3.1,4.4,3,7.1v3c0,0.3-0.1,0.7-0.4,0.9
			c-0.2,0.2-0.6,0.4-0.9,0.4h-6.2c-0.3,0-0.7-0.1-0.9-0.4c-0.2-0.3-0.3-0.6-0.3-0.9v-1.9c0.1-1.1-0.4-2.1-1.2-2.7
			c-0.9-0.7-1.9-1-3-1h-2.4c-0.3,0-0.7,0.1-0.9,0.4c-0.2,0.3-0.3,0.6-0.3,0.9V86c0,0.3,0.1,0.7,0.3,0.9c0.2,0.2,0.5,0.4,0.9,0.4h7.4
			c0.7,0,1.3,0.5,1.3,1.2c0,0,0,0.1,0,0.1v4.9c0,0.7-0.5,1.3-1.2,1.3c0,0-0.1,0-0.1,0h-21.8c-0.7,0-1.3-0.5-1.3-1.2c0,0,0-0.1,0-0.1
			v-4.9c0-0.7,0.5-1.3,1.2-1.3c0,0,0.1,0,0.1,0h2.6c0.3,0,0.7-0.1,0.9-0.4C363.5,86.7,363.6,86.4,363.6,86z"/>
		<path class="st2" d="M413,70v-2.8c0-1.5-0.7-2.8-2-3.5c-1.6-0.9-3.4-1.3-5.2-1.3c-1,0-2.2,0.1-3.5,0.2s-2.5,0.2-3.6,0.4l-3,0.4
			c-0.9,0.1-1.4,0.2-1.5,0.2c-0.2,0-0.4-0.1-0.6-0.2c-0.2-0.2-0.2-0.4-0.2-0.7v-5.4c0-0.3,0-0.5,0.1-0.8c0.1-0.3,0.3-0.5,0.8-0.5
			c0.6-0.1,1.5-0.2,2.6-0.4s2.2-0.2,3.3-0.3s2.2-0.2,3.2-0.2s1.8-0.1,2.3-0.1c2.2,0,4.4,0.2,6.6,0.6c1.9,0.3,3.7,1,5.4,2
			c1.5,0.9,2.8,2.3,3.6,3.9c0.9,1.8,1.4,3.9,1.3,5.9v18c0,0.6,0.2,1.1,0.5,1.5c0.3,0.4,0.8,0.6,1.3,0.6h0.3c0.7,0,1.3,0.5,1.3,1.2
			c0,0,0,0.1,0,0.1v4.9c0,0.7-0.5,1.3-1.2,1.3c0,0-0.1,0-0.1,0h-2.9c-1.7,0.1-3.4-0.2-4.9-1c-1.2-0.8-2-2.1-2.3-3.5
			c0-0.2-0.1-0.3-0.3-0.5c-0.1-0.1-0.2-0.1-0.4-0.2c-0.2,0-0.3,0-0.4,0.1c-0.2,0.1-0.3,0.3-0.3,0.4c-0.5,1.4-1.4,2.6-2.7,3.3
			c-1.7,0.9-3.7,1.2-5.6,1.1h-3.3c-2.8,0.1-5.5-1-7.6-2.9c-2-1.9-3.1-4.5-3-7.2V83c-0.1-2.7,1-5.2,2.9-7c2.1-1.8,4.6-3,7.2-3.5
			L413,70z M404.8,87.3h2.1c2.7,0,4.4-0.7,5.1-2.2c0.7-1.9,1.1-3.9,1-5.9v-2.6l-9,2.2c-1,0.2-1.8,0.8-2.5,1.6
			c-0.6,0.8-0.9,1.7-0.9,2.7v0.8c0,1,0.4,1.9,1.2,2.5C402.7,87,403.8,87.4,404.8,87.3L404.8,87.3z"/>
		<path class="st2" d="M434.3,54.5v-2.7c0-3.8,1.2-6.6,3.5-8.3s5.5-2.5,9.4-2.5h4.6c0.6-0.1,1.1,0.4,1.2,1c0,0.1,0,0.1,0,0.2v5
			c0,0.3-0.1,0.7-0.3,0.9c-0.2,0.2-0.5,0.4-0.9,0.4H449c-2,0-3.4,0.4-4.1,1.2s-1.2,2.2-1.2,4.2v0.7c0,0.3,0.1,0.7,0.3,0.9
			c0.2,0.2,0.5,0.4,0.9,0.4h6.4c0.7,0,1.3,0.5,1.3,1.2c0,0,0,0.1,0,0.1V62c0,0.7-0.5,1.3-1.2,1.3c0,0-0.1,0-0.1,0h-6.4
			c-0.3,0-0.7,0.1-0.9,0.4c-0.2,0.3-0.3,0.6-0.3,0.9v29c0,0.7-0.5,1.3-1.2,1.3c0,0-0.1,0-0.1,0h-7c-0.3,0-0.7-0.1-0.9-0.4
			c-0.2-0.3-0.3-0.6-0.3-0.9v-29c0-0.3-0.1-0.7-0.3-0.9c-0.2-0.2-0.5-0.4-0.9-0.4h-4c-0.7,0-1.3-0.5-1.3-1.2c0,0,0-0.1,0-0.1V57
			c0-0.7,0.5-1.3,1.2-1.3c0,0,0.1,0,0.1,0h4c0.4,0.1,0.7-0.1,1-0.3C434.2,55.1,434.3,54.8,434.3,54.5z"/>
		<path class="st2" d="M470,57v29c0,0.3,0.1,0.7,0.3,0.9c0.2,0.2,0.5,0.4,0.9,0.4h4.8c0.3,0,0.7,0.1,0.9,0.4
			c0.2,0.2,0.4,0.6,0.4,0.9v4.9c0,0.3-0.1,0.7-0.3,0.9c-0.2,0.2-0.6,0.4-0.9,0.4h-20.6c-0.7,0-1.3-0.5-1.3-1.2c0,0,0-0.1,0-0.1v-4.9
			c0-0.7,0.5-1.3,1.2-1.3c0,0,0.1,0,0.1,0h3.9c0.3,0,0.7-0.1,0.9-0.4c0.2-0.3,0.3-0.6,0.3-0.9V64.5c0-0.3-0.1-0.7-0.3-0.9
			c-0.2-0.2-0.5-0.4-0.9-0.4h-2.6c-0.3,0-0.7-0.1-0.9-0.4c-0.2-0.2-0.4-0.6-0.4-0.9V57c0-0.3,0.1-0.7,0.4-0.9
			c0.2-0.2,0.6-0.4,0.9-0.4h11.9C469.4,55.7,470,56.3,470,57C470,57,470,57,470,57z M459,45.9c0-1.5,0.6-3,1.7-4
			c1-1.1,2.5-1.8,4-1.8c1.5,0,3,0.6,4,1.8c2.2,2.1,2.3,5.6,0.2,7.8c-0.1,0.1-0.1,0.1-0.2,0.2c-1,1.1-2.5,1.8-4,1.8
			c-1.5,0-3-0.6-4-1.8C459.6,48.8,459,47.4,459,45.9z"/>
		<path class="st2" d="M491.5,42.2v51.3c0,0.7-0.5,1.3-1.2,1.3c0,0-0.1,0-0.1,0h-7c-0.3,0-0.7-0.1-0.9-0.4c-0.2-0.3-0.3-0.6-0.3-0.9
			V42.2c0-0.3,0.1-0.7,0.3-0.9c0.2-0.2,0.6-0.4,0.9-0.4h7c0.7,0,1.3,0.5,1.3,1.2C491.5,42.1,491.5,42.2,491.5,42.2z M506.3,93.5
			l-10.2-13c-0.5-0.7-1-1.3-1.4-1.9c-0.4-0.6-0.7-1.3-0.6-2.1v-4.6c0-0.5,0.1-1,0.3-1.4c0.2-0.5,0.5-1,0.9-1.4L504,58
			c0.5-0.7,1.1-1.2,1.7-1.8c0.6-0.4,1.4-0.5,2.1-0.5h5.8c0.4,0,0.7,0.1,1,0.3c0.3,0.2,0.4,0.5,0.4,0.8c0,0.2,0,0.4,0,0.6
			c-0.1,0.3-0.2,0.5-0.4,0.7l-11.7,14.5c-0.1,0.2-0.3,0.4-0.4,0.6c-0.1,0.2-0.2,0.4-0.2,0.6c0,0.2,0.1,0.4,0.2,0.6
			c0.1,0.2,0.3,0.4,0.4,0.6l13.9,17.4c0.2,0.2,0.3,0.5,0.4,0.7c0.1,0.2,0.1,0.4,0.1,0.6c0,0.3-0.1,0.6-0.4,0.8
			c-0.3,0.2-0.6,0.3-1,0.3h-6.6c-0.6,0-1.2-0.1-1.8-0.3C507,94.2,506.6,93.9,506.3,93.5z"/>
	</g>
</g>
</svg>
