<?xml version="1.0" standalone="no"?>
<!DOCTYPE svg PUBLIC "-//W3C//DTD SVG 20010904//EN"
 "http://www.w3.org/TR/2001/REC-SVG-20010904/DTD/svg10.dtd">
<svg version="1.0" xmlns="http://www.w3.org/2000/svg"
 width="766.000000pt" height="766.000000pt" viewBox="0 0 766.000000 766.000000"
 preserveAspectRatio="xMidYMid meet">
<metadata>
Created by potrace 1.11, written by Peter Selinger 2001-2013
</metadata>
<g transform="translate(0.000000,766.000000) scale(0.100000,-0.100000)"
fill="#000000" stroke="none">
<path d="M3455 7360 c-82 -17 -115 -22 -240 -35 -33 -4 -63 -9 -66 -11 -4 -2
-24 -7 -45 -10 -22 -3 -95 -19 -164 -36 -154 -36 -155 -36 -155 -38 0 -1 -7
-3 -15 -5 -8 -2 -53 -16 -100 -31 -47 -15 -89 -29 -95 -30 -5 -1 -32 -12 -60
-24 -27 -12 -59 -25 -70 -30 -11 -5 -47 -21 -80 -36 -33 -16 -62 -29 -65 -29
-3 -1 -48 -23 -100 -50 -52 -28 -99 -52 -105 -54 -5 -2 -12 -7 -15 -10 -3 -3
-25 -17 -50 -30 -63 -34 -234 -144 -238 -153 -2 -5 -8 -8 -13 -8 -10 0 -193
-136 -222 -164 -8 -9 -18 -16 -22 -16 -3 0 -16 -10 -29 -22 -13 -13 -46 -42
-73 -65 -70 -59 -245 -234 -319 -318 -73 -84 -208 -256 -240 -306 -12 -20 -28
-42 -36 -50 -15 -17 -11 -11 -116 -184 -73 -121 -131 -232 -197 -380 -24 -53
-123 -314 -130 -340 -1 -5 -5 -17 -8 -25 -3 -8 -11 -35 -18 -60 -7 -25 -14
-49 -15 -55 -9 -32 -37 -143 -40 -160 -2 -11 -8 -38 -13 -60 -54 -220 -83
-474 -83 -730 -1 -219 9 -416 26 -525 3 -19 8 -59 11 -88 6 -62 15 -103 25
-117 4 -5 10 -37 13 -70 3 -33 12 -85 22 -115 9 -30 17 -59 19 -65 2 -5 6 -17
9 -25 3 -8 16 -49 27 -90 39 -135 72 -234 108 -325 42 -107 165 -354 222 -445
22 -36 43 -73 46 -82 4 -10 10 -18 15 -18 5 0 9 -5 9 -11 0 -12 80 -133 92
-137 4 -2 8 -8 8 -14 0 -11 100 -141 112 -146 5 -2 8 -10 8 -17 0 -7 3 -15 8
-17 4 -2 36 -37 72 -78 35 -41 115 -127 177 -190 63 -63 116 -125 119 -138 4
-12 10 -22 15 -22 13 0 129 -92 129 -102 0 -4 5 -8 10 -8 6 0 34 -19 63 -43
57 -45 60 -48 185 -134 92 -65 167 -112 257 -161 33 -19 64 -38 70 -43 5 -5
17 -9 26 -9 10 0 19 -3 21 -8 4 -9 160 -84 258 -124 41 -17 91 -38 110 -46 19
-9 40 -17 45 -18 6 -1 37 -12 70 -24 33 -11 107 -34 165 -50 58 -16 119 -34
135 -39 27 -8 46 -12 135 -27 14 -3 61 -14 106 -25 122 -30 163 -34 409 -45
203 -9 279 -9 445 0 233 12 273 16 375 36 28 6 60 12 71 14 267 51 495 118
706 207 65 27 122 49 128 49 5 0 10 5 10 10 0 6 5 10 11 10 9 0 196 89 229
110 8 5 58 34 110 65 136 81 135 79 140 86 3 3 14 11 25 17 34 18 233 168 297
224 314 274 527 522 739 859 72 116 249 450 249 471 0 4 13 36 29 70 23 52 74
190 76 208 0 3 4 11 8 17 5 7 10 21 12 30 3 10 14 50 26 88 17 58 35 132 65
270 2 11 8 45 14 75 6 30 12 66 15 80 10 49 23 136 30 195 2 22 7 69 11 105
10 88 12 590 3 616 -7 19 -10 45 -26 184 -6 56 -10 85 -13 85 -1 0 -3 16 -6
35 -7 61 -56 284 -65 302 -5 9 -8 21 -7 25 2 10 -11 61 -22 88 -4 11 -29 83
-55 160 -71 212 -196 482 -303 655 -47 74 -168 257 -179 268 -7 7 -13 16 -13
20 0 4 -10 19 -23 34 -13 15 -32 39 -43 53 -20 28 -22 31 -94 116 -63 77 -376
388 -435 434 -27 21 -54 43 -60 49 -5 6 -35 29 -65 51 -30 22 -57 42 -60 45
-3 3 -12 10 -21 15 -9 6 -69 45 -133 88 -65 43 -134 87 -154 98 -21 11 -53 30
-72 41 -46 27 -212 111 -272 138 -52 22 -100 42 -108 45 -3 1 -22 9 -44 18
-21 9 -42 17 -47 17 -5 0 -17 4 -27 9 -26 13 -295 97 -341 106 -9 2 -34 8 -57
14 -58 16 -143 33 -184 37 -19 2 -42 5 -50 7 -34 8 -130 25 -185 33 -22 3 -53
8 -70 11 -51 9 -668 12 -710 3z m492 -773 c4 -6 7 -57 8 -112 1 -91 11 -138
28 -136 36 5 185 -1 196 -8 17 -11 22 -192 6 -225 -10 -19 -19 -21 -108 -22
-58 -1 -103 -6 -109 -12 -7 -7 -12 -54 -13 -119 -1 -120 -6 -111 85 -170 72
-47 114 -94 152 -172 28 -55 32 -72 30 -135 -1 -39 -4 -82 -7 -96 -3 -14 -8
-38 -11 -55 -8 -46 -62 -135 -110 -182 -23 -23 -73 -57 -111 -75 -64 -31 -74
-33 -178 -33 -105 0 -114 2 -178 33 -37 19 -90 56 -117 83 -95 95 -141 236
-118 362 22 120 115 246 215 292 21 9 44 24 51 33 14 18 17 209 3 230 -6 10
-37 14 -111 14 -138 1 -142 4 -139 139 1 84 4 101 19 109 10 5 61 9 113 8 128
-3 127 -3 127 131 0 71 4 111 12 119 17 17 255 15 265 -1z m-313 -1682 c33 -9
85 -29 116 -47 l56 -31 66 32 c83 39 175 59 264 55 81 -3 90 -5 169 -33 148
-52 282 -190 311 -321 8 -39 8 -193 -2 -242 -3 -18 -7 -42 -8 -53 -6 -46 -39
-134 -101 -270 -52 -112 -162 -335 -205 -410 -27 -49 -53 -97 -57 -105 -4 -7
-23 -41 -43 -75 -21 -33 -56 -96 -80 -140 -23 -44 -55 -102 -70 -130 -15 -27
-39 -73 -54 -101 -31 -61 -61 -94 -84 -95 -85 -6 -211 -2 -227 6 -32 17 -39
26 -89 119 -26 49 -79 142 -117 206 -37 65 -101 183 -142 262 -41 78 -97 186
-125 239 -47 88 -137 297 -177 415 -56 164 -47 353 24 492 29 57 125 151 188
185 112 60 255 75 387 42z m-809 -53 c140 -41 175 -57 175 -80 0 -24 -98 -222
-111 -223 -5 -1 -15 -2 -21 -3 -7 -1 -38 7 -68 17 -180 62 -324 24 -382 -101
-20 -46 -23 -67 -18 -127 5 -49 29 -149 46 -191 32 -79 156 -329 165 -332 5
-2 9 -9 9 -16 0 -11 61 -126 160 -301 39 -68 127 -234 167 -315 16 -30 31 -56
36 -58 4 -2 7 -8 7 -13 0 -6 18 -37 41 -70 38 -57 40 -62 24 -79 -14 -15 -33
-17 -159 -16 -101 1 -148 5 -159 14 -8 7 -32 48 -52 90 -20 42 -62 120 -94
172 -32 52 -70 116 -85 143 -14 26 -37 66 -50 90 -202 360 -315 612 -356 795
-20 87 -7 223 28 310 69 167 189 268 370 311 104 25 201 19 327 -17z m2270 18
c69 -14 63 -12 135 -47 188 -89 292 -277 277 -495 -6 -73 -35 -215 -54 -258
-3 -8 -7 -17 -8 -20 -2 -6 -20 -47 -75 -170 -45 -100 -152 -310 -214 -420 -20
-36 -42 -76 -49 -90 -6 -14 -14 -27 -17 -30 -3 -3 -13 -21 -24 -40 -29 -54
-66 -121 -92 -165 -13 -22 -27 -47 -31 -55 -3 -8 -9 -17 -12 -20 -4 -3 -15
-22 -26 -43 -36 -70 -42 -72 -193 -73 -75 -1 -142 1 -149 3 -19 7 -16 37 7 77
10 20 36 66 56 103 21 37 45 80 53 95 34 58 186 325 202 353 9 17 36 66 61
110 24 44 62 116 83 160 22 44 43 82 48 83 4 2 7 9 7 16 0 7 9 30 19 52 108
225 134 328 105 430 -17 62 -71 123 -131 149 -57 24 -172 16 -265 -18 l-67
-24 -20 21 c-23 25 -88 150 -101 195 -7 27 -6 33 14 46 32 21 164 66 204 70
19 2 35 5 37 7 9 9 176 7 220 -2z m-3220 -115 c28 -4 61 -9 75 -11 14 -3 42
-8 63 -11 42 -6 75 -42 61 -65 -5 -7 -10 -22 -11 -32 -2 -11 -7 -24 -12 -30
-5 -6 -14 -36 -20 -66 -7 -30 -19 -62 -28 -72 -18 -20 -67 -24 -110 -7 -37 14
-160 14 -195 0 -16 -6 -28 -8 -28 -5 0 21 -138 -93 -141 -118 -2 -13 -5 -22
-15 -43 -10 -23 -11 -177 -1 -217 4 -16 9 -40 12 -54 12 -58 69 -160 185 -335
67 -101 125 -186 129 -189 3 -3 11 -12 16 -21 14 -22 97 -142 107 -154 20 -23
219 -307 229 -328 7 -12 11 -24 9 -27 -12 -21 -45 -28 -114 -27 -43 1 -79 0
-81 -4 -3 -3 -25 -5 -50 -4 -57 2 -86 23 -148 106 -27 35 -55 72 -63 82 -8 9
-14 20 -14 24 0 3 -7 13 -15 22 -9 9 -51 68 -95 131 -44 63 -83 120 -88 125
-24 29 -184 280 -187 295 -1 4 -17 38 -96 205 -27 57 -47 174 -44 260 2 87 27
210 46 230 5 5 9 15 9 23 0 25 79 129 136 180 79 71 179 118 278 132 44 5 82
12 84 15 5 4 40 1 117 -10z m4065 1 c164 -23 316 -123 398 -263 25 -42 56
-118 55 -133 0 -3 4 -16 9 -30 5 -14 11 -54 13 -90 3 -36 5 -67 6 -70 1 -3 1
-9 -1 -15 -1 -5 -3 -34 -5 -65 -7 -99 -76 -274 -162 -409 -56 -88 -207 -315
-213 -321 -3 -3 -32 -45 -65 -95 -33 -49 -62 -92 -66 -95 -3 -3 -25 -34 -50
-70 -24 -36 -47 -69 -51 -75 -4 -5 -20 -26 -37 -45 l-29 -35 -146 1 c-156 1
-182 8 -170 48 4 12 41 71 82 131 104 151 115 167 130 183 6 7 12 17 12 22 0
5 6 15 13 22 7 7 35 45 62 83 27 39 52 72 55 75 4 3 15 20 25 38 11 17 23 32
27 32 4 0 8 5 8 10 0 9 36 66 50 80 3 3 25 37 50 75 25 39 47 72 50 75 3 3 10
14 16 25 6 11 23 42 38 69 35 62 74 180 77 231 5 75 -30 193 -73 245 -60 73
-199 103 -348 75 -86 -16 -98 -4 -134 135 -14 58 -26 108 -26 112 0 6 59 29
90 35 8 1 47 5 85 9 39 3 71 7 72 8 4 3 118 -3 153 -8z m-313 -2114 c20 -11
21 -20 22 -126 1 -91 -2 -117 -14 -130 -14 -13 -205 -15 -1824 -13 -1520 2
-1811 4 -1825 16 -13 11 -16 32 -15 115 1 118 4 135 29 144 11 4 826 7 1812 7
1372 -1 1798 -4 1815 -13z m-1 -635 c13 -13 13 -215 0 -232 -10 -13 -221 -15
-1819 -17 -1227 -1 -1811 2 -1818 9 -5 5 -10 50 -11 99 -1 130 0 134 22 142
27 10 3616 9 3626 -1z"/>
<path d="M3751 5599 c-110 -44 -151 -172 -82 -259 74 -94 212 -93 278 2 23 34
28 52 28 99 0 49 -4 63 -31 95 -17 21 -44 46 -60 55 -32 19 -96 23 -133 8z"/>
<path d="M3410 4617 c-49 -24 -77 -47 -97 -84 -35 -63 -35 -110 1 -268 16 -74
202 -464 256 -540 4 -5 27 -48 52 -95 60 -112 101 -187 113 -208 6 -9 21 -36
34 -59 14 -24 30 -43 36 -43 20 0 314 531 404 730 61 134 130 357 124 403 -5
50 -26 92 -61 124 -84 78 -235 68 -314 -20 -36 -41 -93 -134 -101 -169 -7 -26
-32 -58 -45 -58 -18 1 -41 31 -70 91 -56 116 -116 180 -182 197 -39 11 -127
10 -150 -1z"/>
</g>
</svg>
